<?xml version="1.0" encoding="utf-8"?>
<!-- Generator: Adobe Illustrator 18.0.0, SVG Export Plug-In . SVG Version: 6.00 Build 0)  -->
<!DOCTYPE svg PUBLIC "-//W3C//DTD SVG 1.1//EN" "http://www.w3.org/Graphics/SVG/1.1/DTD/svg11.dtd">
<svg version="1.1" id="Слой_1" xmlns="http://www.w3.org/2000/svg" xmlns:xlink="http://www.w3.org/1999/xlink" x="0px" y="0px"
	 viewBox="0 0 290 84" enable-background="new 0 0 290 84" xml:space="preserve">
<g>
	<g>
		<path fill="#00548B" d="M169.561,68.092v2.205h-1.078v-3.223l0.772-0.013c0.278-0.301,0.505-0.653,0.68-1.057
			c0.175-0.404,0.316-0.864,0.423-1.38s0.185-1.087,0.239-1.715c0.053-0.627,0.104-1.319,0.153-2.076l0.098-1.586h5.034v7.813
			l0.845,0.013v3.223h-1.077v-2.205L169.561,68.092L169.561,68.092z M171.973,61.194c-0.057,0.86-0.11,1.599-0.159,2.218
			s-0.117,1.154-0.203,1.605c-0.085,0.451-0.198,0.838-0.336,1.16c-0.139,0.322-0.318,0.617-0.539,0.883h3.772v-6.794h-2.474
			L171.973,61.194z"/>
		<path fill="#00548B" d="M183.535,64.946c0,0.421-0.049,0.827-0.147,1.219c-0.098,0.391-0.259,0.739-0.484,1.044
			s-0.52,0.548-0.888,0.728c-0.367,0.18-0.825,0.271-1.372,0.271c-0.523,0-0.959-0.086-1.311-0.258
			c-0.351-0.172-0.635-0.406-0.851-0.703c-0.217-0.297-0.372-0.642-0.466-1.038c-0.094-0.395-0.141-0.812-0.141-1.251
			c0-0.43,0.052-0.844,0.159-1.244c0.106-0.399,0.274-0.752,0.502-1.057s0.524-0.55,0.888-0.735
			c0.363-0.185,0.802-0.277,1.316-0.277c0.523,0,0.964,0.093,1.323,0.277c0.359,0.185,0.647,0.43,0.863,0.735
			c0.217,0.305,0.372,0.658,0.466,1.057C183.488,64.115,183.535,64.525,183.535,64.946z M182.139,64.959
			c0-0.266-0.016-0.535-0.049-0.806c-0.033-0.271-0.1-0.516-0.202-0.735c-0.102-0.219-0.245-0.397-0.429-0.535
			c-0.184-0.137-0.423-0.206-0.717-0.206c-0.293,0-0.537,0.067-0.728,0.2c-0.192,0.133-0.343,0.309-0.453,0.529
			c-0.11,0.219-0.188,0.464-0.232,0.735c-0.045,0.271-0.068,0.544-0.068,0.818c0,0.301,0.019,0.585,0.056,0.851
			c0.037,0.267,0.108,0.501,0.214,0.703s0.257,0.363,0.453,0.484c0.196,0.12,0.449,0.18,0.759,0.18c0.294,0,0.531-0.064,0.71-0.193
			c0.18-0.129,0.321-0.297,0.423-0.503c0.103-0.206,0.171-0.442,0.208-0.709C182.12,65.505,182.139,65.234,182.139,64.959z"/>
		<path fill="#00548B" d="M186.217,64.921c0,0.327,0.027,0.623,0.08,0.889c0.053,0.267,0.141,0.495,0.263,0.683
			c0.123,0.189,0.286,0.337,0.491,0.445c0.203,0.108,0.461,0.161,0.772,0.161c0.302,0,0.585-0.032,0.851-0.097
			c0.265-0.064,0.541-0.156,0.826-0.277l0.294,0.941c-0.278,0.155-0.606,0.279-0.986,0.374c-0.38,0.095-0.774,0.142-1.182,0.142
			c-0.531,0-0.973-0.082-1.329-0.245c-0.355-0.163-0.639-0.387-0.851-0.671s-0.363-0.619-0.453-1.005
			c-0.09-0.387-0.135-0.804-0.135-1.251c0-0.352,0.038-0.726,0.116-1.122c0.077-0.395,0.221-0.758,0.429-1.089
			c0.208-0.331,0.496-0.606,0.864-0.825c0.367-0.219,0.845-0.329,1.433-0.329c0.261,0,0.543,0.02,0.845,0.058
			c0.302,0.039,0.617,0.122,0.943,0.251l-0.245,1.006c-0.277-0.095-0.528-0.153-0.753-0.174c-0.225-0.022-0.431-0.032-0.619-0.032
			c-0.538,0-0.949,0.194-1.231,0.58C186.358,63.721,186.217,64.25,186.217,64.921z"/>
		<path fill="#00548B" d="M192.512,62.793h-2.081v-1.018h5.487v1.018h-2.07v5.299h-1.336V62.793z"/>
		<path fill="#00548B" d="M199.629,66.004c0.188-0.688,0.387-1.388,0.6-2.102c0.212-0.713,0.416-1.418,0.612-2.114h1.347
			l-2.388,7.465c-0.18,0.559-0.419,0.967-0.717,1.225c-0.298,0.258-0.679,0.387-1.145,0.387c-0.074,0-0.153-0.002-0.239-0.007
			c-0.086-0.004-0.182-0.013-0.288-0.026c-0.106-0.013-0.229-0.035-0.368-0.065c-0.138-0.031-0.306-0.072-0.502-0.124l0.196-0.964
			c0.212,0.043,0.387,0.075,0.527,0.097c0.139,0.022,0.273,0.032,0.404,0.032c0.254,0,0.454-0.058,0.6-0.173
			c0.147-0.115,0.274-0.335,0.38-0.659l0.306-0.96h-0.624c-0.311-1.049-0.621-2.088-0.931-3.12
			c-0.311-1.032-0.621-2.067-0.931-3.107h1.323c0.09,0.309,0.184,0.642,0.282,0.999c0.098,0.357,0.196,0.72,0.294,1.089
			c0.098,0.37,0.196,0.737,0.293,1.103s0.192,0.716,0.282,1.051c0.066,0.249,0.123,0.477,0.171,0.683
			c0.049,0.206,0.086,0.365,0.11,0.477h0.074L199.629,66.004z"/>
		<path fill="#00548B" d="M207.161,68.092v-5.325h-2.597v5.325h-1.335v-6.304h5.267c0,0.438,0,0.93,0,1.476
			s-0.002,1.104-0.006,1.676s-0.006,1.133-0.006,1.682c0,0.55,0,1.04,0,1.47H207.161z"/>
		<path fill="#00548B" d="M214.031,68.092v-2.849h-2.609v2.849h-1.335v-6.304h1.347v2.45h2.596v-2.45h1.336v6.304
			C215.366,68.092,214.031,68.092,214.031,68.092z"/>
		<path fill="#00548B" d="M221.859,67.112h0.796l0.074,0.799c-0.171,0.095-0.369,0.165-0.594,0.212
			c-0.225,0.047-0.439,0.071-0.643,0.071c-0.253,0-0.455-0.047-0.606-0.142c-0.152-0.094-0.236-0.305-0.251-0.632l-0.025-0.025
			c-0.22,0.198-0.434,0.353-0.642,0.464c-0.208,0.112-0.405,0.193-0.588,0.245s-0.347,0.081-0.49,0.09
			c-0.142,0.008-0.259,0.013-0.349,0.013c-0.359,0-0.655-0.06-0.888-0.181c-0.232-0.12-0.416-0.273-0.551-0.458
			s-0.228-0.382-0.282-0.593s-0.08-0.406-0.08-0.587c0-0.301,0.061-0.567,0.184-0.799c0.122-0.232,0.292-0.427,0.509-0.586
			c0.216-0.159,0.467-0.282,0.753-0.367c0.286-0.086,0.596-0.138,0.931-0.155l1.457-0.103V64.03c0-0.464-0.084-0.793-0.25-0.986
			c-0.167-0.193-0.488-0.29-0.962-0.29c-0.294,0-0.606,0.031-0.937,0.09c-0.33,0.06-0.642,0.142-0.937,0.245
			c-0.041-0.146-0.081-0.297-0.123-0.451c-0.041-0.155-0.081-0.305-0.122-0.451c0.343-0.164,0.735-0.29,1.176-0.381
			c0.441-0.09,0.861-0.135,1.261-0.135c0.335,0,0.637,0.037,0.906,0.11c0.269,0.073,0.498,0.194,0.686,0.361
			c0.188,0.168,0.333,0.389,0.434,0.664c0.103,0.275,0.153,0.61,0.153,1.006L221.859,67.112L221.859,67.112z M219.189,65.268
			c-0.36,0.026-0.623,0.122-0.79,0.29c-0.167,0.167-0.251,0.393-0.251,0.677c0,0.327,0.076,0.574,0.227,0.741
			s0.398,0.251,0.741,0.251c0.228,0,0.469-0.062,0.722-0.187c0.254-0.124,0.498-0.299,0.735-0.522v-1.354L219.189,65.268z"/>
		<path fill="#00548B" d="M228.741,65.204c-0.359-0.121-0.614-0.32-0.765-0.6c-0.151-0.279-0.227-0.582-0.227-0.909
			c0-0.258,0.043-0.505,0.129-0.741c0.085-0.236,0.216-0.44,0.392-0.612c0.175-0.172,0.397-0.309,0.667-0.413
			c0.269-0.103,0.588-0.155,0.955-0.155h2.89v6.317h-1.311v-2.553h-1.016c-0.311,0-0.559,0.054-0.747,0.161
			c-0.188,0.108-0.339,0.338-0.453,0.69l-0.539,1.702h-1.347l0.576-1.805c0.065-0.215,0.155-0.421,0.269-0.619
			s0.29-0.344,0.527-0.439L228.741,65.204L228.741,65.204z M229.085,63.644c0,0.206,0.034,0.374,0.103,0.503
			c0.069,0.129,0.156,0.23,0.262,0.303c0.106,0.073,0.223,0.122,0.353,0.148c0.131,0.026,0.256,0.039,0.378,0.039h1.292v-1.934
			h-1.279c-0.326,0-0.592,0.071-0.798,0.212C229.188,63.057,229.085,63.3,229.085,63.644z"/>
		<path fill="#00548B" d="M234.363,68.092v-6.304h1.298v2.475h0.98c0.261,0,0.49-0.062,0.685-0.187
			c0.196-0.124,0.339-0.359,0.429-0.703l0.453-1.573h1.237l-0.466,1.741c-0.074,0.275-0.182,0.514-0.324,0.715
			c-0.143,0.202-0.321,0.351-0.533,0.445v0.013c0.302,0.103,0.531,0.25,0.685,0.439c0.155,0.189,0.274,0.421,0.355,0.696
			c0.114,0.378,0.222,0.754,0.325,1.128c0.102,0.374,0.206,0.746,0.312,1.115h-1.298c-0.09-0.327-0.184-0.655-0.282-0.986
			c-0.098-0.331-0.196-0.664-0.294-0.999v0.013c-0.065-0.198-0.143-0.356-0.232-0.477c-0.09-0.12-0.19-0.215-0.3-0.284
			s-0.226-0.114-0.349-0.135c-0.122-0.022-0.245-0.032-0.367-0.032h-1.017v2.901h-1.297L234.363,68.092L234.363,68.092z"/>
		<path fill="#00548B" d="M242.838,60.086c0,0.224-0.075,0.415-0.226,0.574c-0.152,0.159-0.354,0.238-0.606,0.238
			c-0.237,0-0.431-0.079-0.582-0.238s-0.226-0.35-0.226-0.574c0-0.232,0.075-0.427,0.226-0.586s0.345-0.239,0.582-0.239
			c0.253,0,0.455,0.08,0.606,0.239C242.763,59.658,242.838,59.854,242.838,60.086z M241.332,68.092v-6.304h1.335v6.304H241.332z"/>
		<path fill="#00548B" d="M245.839,64.921c0,0.327,0.027,0.623,0.08,0.889c0.053,0.267,0.141,0.495,0.263,0.683
			c0.123,0.189,0.286,0.337,0.491,0.445c0.203,0.108,0.461,0.161,0.772,0.161c0.302,0,0.585-0.032,0.851-0.097
			c0.265-0.064,0.541-0.156,0.826-0.277l0.294,0.941c-0.278,0.155-0.606,0.279-0.986,0.374c-0.38,0.095-0.774,0.142-1.182,0.142
			c-0.531,0-0.973-0.082-1.329-0.245c-0.355-0.163-0.639-0.387-0.851-0.671s-0.363-0.619-0.453-1.005
			c-0.09-0.387-0.135-0.804-0.135-1.251c0-0.352,0.038-0.726,0.116-1.122c0.077-0.395,0.221-0.758,0.429-1.089
			c0.208-0.331,0.496-0.606,0.864-0.825c0.367-0.219,0.845-0.329,1.433-0.329c0.261,0,0.543,0.02,0.845,0.058
			c0.302,0.039,0.617,0.122,0.943,0.251l-0.245,1.006c-0.277-0.095-0.528-0.153-0.753-0.174c-0.225-0.022-0.431-0.032-0.619-0.032
			c-0.538,0-0.949,0.194-1.231,0.58C245.98,63.721,245.839,64.25,245.839,64.921z"/>
		<path fill="#00548B" d="M252.134,62.793h-2.081v-1.018h5.487v1.018h-2.07v5.299h-1.336V62.793z"/>
		<path fill="#00548B" d="M257.891,61.788v2.192h1.832c0.333,0,0.633,0.054,0.898,0.161c0.264,0.108,0.488,0.256,0.671,0.445
			c0.183,0.189,0.322,0.406,0.415,0.651c0.093,0.245,0.14,0.509,0.14,0.793c0,0.309-0.051,0.591-0.153,0.844
			c-0.103,0.254-0.243,0.471-0.423,0.651s-0.392,0.32-0.637,0.419s-0.511,0.148-0.797,0.148h-3.283v-6.304
			C256.554,61.788,257.891,61.788,257.891,61.788z M257.891,64.882v2.23h1.61c0.317,0,0.569-0.101,0.756-0.301
			c0.187-0.201,0.28-0.464,0.28-0.788c0-0.359-0.106-0.639-0.317-0.84s-0.48-0.301-0.804-0.301H257.891z"/>
		<path fill="#00548B" d="M263.059,67.408c0-0.214,0.074-0.399,0.221-0.554s0.339-0.232,0.575-0.232
			c0.278,0,0.488,0.093,0.631,0.277c0.142,0.185,0.214,0.41,0.214,0.677c0,0.206-0.034,0.419-0.104,0.638
			c-0.069,0.219-0.165,0.432-0.287,0.638c-0.123,0.206-0.27,0.397-0.441,0.574c-0.171,0.176-0.359,0.316-0.563,0.419l-0.318-0.451
			c0.359-0.353,0.563-0.773,0.613-1.263c-0.171-0.043-0.304-0.127-0.398-0.252C263.106,67.755,263.059,67.598,263.059,67.408z"/>
		<path fill="#00548B" d="M172.941,81.317v-5.325h-2.597v5.325h-1.335v-6.304h5.267c0,0.438,0,0.93,0,1.476
			s-0.002,1.104-0.006,1.676s-0.006,1.133-0.006,1.682c0,0.55,0,1.04,0,1.47H172.941z"/>
		<path fill="#00548B" d="M178.146,74.858c0.408,0,0.757,0.054,1.048,0.161c0.29,0.108,0.531,0.247,0.722,0.419
			c0.192,0.172,0.341,0.368,0.447,0.587s0.186,0.443,0.239,0.67c0.052,0.228,0.085,0.447,0.098,0.658
			c0.012,0.211,0.018,0.393,0.018,0.548v0.503h-3.98c0,0.275,0.027,0.531,0.08,0.767c0.053,0.237,0.142,0.441,0.269,0.613
			s0.294,0.309,0.502,0.412s0.463,0.155,0.765,0.155c0.344,0,0.667-0.037,0.974-0.11c0.306-0.073,0.622-0.178,0.949-0.316
			l0.293,0.877c-0.376,0.215-0.761,0.37-1.157,0.464c-0.396,0.095-0.802,0.142-1.218,0.142c-0.563,0-1.027-0.086-1.39-0.258
			c-0.363-0.172-0.651-0.406-0.863-0.703c-0.213-0.297-0.36-0.64-0.441-1.032c-0.081-0.391-0.122-0.806-0.122-1.244
			c0-0.309,0.037-0.655,0.11-1.038c0.074-0.383,0.21-0.743,0.41-1.083c0.2-0.34,0.48-0.623,0.839-0.851
			C177.097,74.972,177.566,74.858,178.146,74.858z M178.195,75.812c-0.261,0-0.48,0.05-0.656,0.148
			c-0.175,0.099-0.318,0.232-0.428,0.4c-0.11,0.167-0.192,0.361-0.245,0.58s-0.088,0.45-0.105,0.69h2.719
			c0-0.266-0.02-0.511-0.061-0.735c-0.041-0.223-0.11-0.415-0.208-0.574c-0.098-0.159-0.231-0.284-0.398-0.374
			S178.44,75.812,178.195,75.812z"/>
		<path fill="#00548B" d="M183.144,75.619c0.268-0.223,0.559-0.395,0.872-0.516c0.314-0.12,0.621-0.181,0.923-0.181
			c0.44,0,0.808,0.084,1.105,0.252c0.297,0.167,0.534,0.397,0.708,0.69c0.175,0.292,0.299,0.63,0.372,1.012
			c0.074,0.382,0.11,0.793,0.11,1.231c0,0.464-0.045,0.898-0.135,1.302c-0.089,0.404-0.232,0.756-0.427,1.057
			c-0.196,0.301-0.45,0.537-0.764,0.709c-0.313,0.172-0.694,0.258-1.142,0.258c-0.114,0-0.24-0.007-0.379-0.02
			c-0.139-0.013-0.281-0.034-0.427-0.065c-0.146-0.03-0.293-0.071-0.44-0.122c-0.146-0.051-0.281-0.12-0.403-0.206v2.978h-1.335V75
			h1.274l0.024,0.567L183.144,75.619z M184.49,80.414c0.18,0,0.355-0.036,0.527-0.11c0.171-0.074,0.322-0.201,0.453-0.382
			c0.131-0.181,0.235-0.424,0.312-0.73s0.117-0.687,0.117-1.144c0-0.405-0.033-0.741-0.099-1.008
			c-0.065-0.267-0.159-0.478-0.282-0.634c-0.122-0.155-0.268-0.265-0.434-0.329c-0.167-0.065-0.349-0.097-0.545-0.097
			c-0.114,0-0.239,0.018-0.373,0.052s-0.268,0.08-0.398,0.136c-0.131,0.056-0.254,0.119-0.368,0.187
			c-0.114,0.069-0.204,0.138-0.269,0.207v3.453c0.065,0.052,0.151,0.101,0.257,0.149c0.106,0.047,0.22,0.09,0.343,0.129
			s0.249,0.069,0.38,0.091C184.242,80.404,184.368,80.414,184.49,80.414z"/>
		<path fill="#00548B" d="M190.982,74.858c0.408,0,0.757,0.054,1.048,0.161c0.29,0.108,0.531,0.247,0.722,0.419
			c0.192,0.172,0.341,0.368,0.447,0.587s0.186,0.443,0.239,0.67c0.052,0.228,0.085,0.447,0.098,0.658
			c0.012,0.211,0.018,0.393,0.018,0.548v0.503h-3.98c0,0.275,0.027,0.531,0.08,0.767c0.053,0.237,0.142,0.441,0.269,0.613
			s0.294,0.309,0.502,0.412c0.208,0.103,0.463,0.155,0.765,0.155c0.344,0,0.667-0.037,0.974-0.11
			c0.306-0.073,0.622-0.178,0.949-0.316l0.293,0.877c-0.376,0.215-0.761,0.37-1.157,0.464c-0.396,0.095-0.802,0.142-1.218,0.142
			c-0.563,0-1.027-0.086-1.39-0.258c-0.363-0.172-0.651-0.406-0.863-0.703c-0.213-0.297-0.36-0.64-0.441-1.032
			c-0.081-0.391-0.122-0.806-0.122-1.244c0-0.309,0.037-0.655,0.11-1.038c0.074-0.383,0.21-0.743,0.41-1.083s0.48-0.623,0.839-0.851
			C189.933,74.972,190.402,74.858,190.982,74.858z M191.031,75.812c-0.261,0-0.48,0.05-0.656,0.148
			c-0.175,0.099-0.318,0.232-0.428,0.4c-0.11,0.167-0.192,0.361-0.245,0.58s-0.088,0.45-0.105,0.69h2.719
			c0-0.266-0.02-0.511-0.061-0.735c-0.041-0.223-0.11-0.415-0.208-0.574c-0.098-0.159-0.231-0.284-0.398-0.374
			C191.482,75.857,191.276,75.812,191.031,75.812z"/>
		<path fill="#00548B" d="M197.738,75.013c0.638,0,1.125,0.146,1.461,0.438s0.503,0.688,0.503,1.186
			c0,0.224-0.052,0.458-0.155,0.703s-0.302,0.453-0.599,0.625v0.013c0.192,0.077,0.349,0.178,0.469,0.303
			c0.12,0.124,0.216,0.255,0.288,0.393c0.072,0.137,0.12,0.281,0.145,0.432c0.023,0.15,0.036,0.29,0.036,0.419
			c0,0.275-0.051,0.522-0.153,0.741c-0.102,0.219-0.243,0.406-0.422,0.561s-0.387,0.275-0.624,0.361
			c-0.236,0.086-0.488,0.129-0.757,0.129h-3.311v-6.304C194.619,75.013,197.738,75.013,197.738,75.013z M195.954,75.966v1.689h1.426
			c0.309,0,0.551-0.079,0.725-0.238c0.174-0.159,0.262-0.363,0.262-0.613c0-0.249-0.081-0.451-0.244-0.606
			c-0.162-0.155-0.43-0.232-0.804-0.232H195.954z M195.954,78.455v1.908h1.5c0.398,0,0.68-0.099,0.847-0.296
			c0.167-0.198,0.25-0.421,0.25-0.671c0-0.249-0.09-0.468-0.268-0.658c-0.179-0.189-0.455-0.284-0.829-0.284L195.954,78.455
			L195.954,78.455z"/>
		<path fill="#00548B" d="M202.752,73.311c0,0.224-0.075,0.415-0.226,0.574c-0.152,0.159-0.354,0.238-0.606,0.238
			c-0.237,0-0.431-0.079-0.582-0.238s-0.226-0.35-0.226-0.574c0-0.232,0.075-0.427,0.226-0.586s0.345-0.239,0.582-0.239
			c0.253,0,0.455,0.08,0.606,0.239C202.677,72.883,202.752,73.079,202.752,73.311z M201.246,81.317v-6.304h1.335v6.304H201.246z"/>
		<path fill="#00548B" d="M205.508,75.619c0.268-0.223,0.559-0.395,0.872-0.516c0.314-0.12,0.621-0.181,0.923-0.181
			c0.44,0,0.808,0.084,1.105,0.252c0.297,0.167,0.534,0.397,0.708,0.69c0.175,0.292,0.299,0.63,0.372,1.012
			c0.074,0.382,0.11,0.793,0.11,1.231c0,0.464-0.045,0.898-0.135,1.302c-0.089,0.404-0.232,0.756-0.427,1.057
			c-0.196,0.301-0.45,0.537-0.764,0.709c-0.313,0.172-0.694,0.258-1.142,0.258c-0.114,0-0.24-0.007-0.379-0.02
			c-0.138-0.013-0.281-0.034-0.427-0.065c-0.146-0.03-0.293-0.071-0.44-0.122c-0.146-0.051-0.281-0.12-0.403-0.206v2.978h-1.335V75
			h1.274l0.024,0.567L205.508,75.619z M206.854,80.414c0.18,0,0.355-0.036,0.527-0.11c0.171-0.074,0.322-0.201,0.453-0.382
			c0.131-0.181,0.235-0.424,0.312-0.73s0.117-0.687,0.117-1.144c0-0.405-0.033-0.741-0.099-1.008
			c-0.065-0.267-0.159-0.478-0.282-0.634c-0.122-0.155-0.268-0.265-0.434-0.329c-0.167-0.065-0.349-0.097-0.545-0.097
			c-0.114,0-0.239,0.018-0.373,0.052c-0.135,0.034-0.268,0.08-0.398,0.136c-0.131,0.056-0.254,0.119-0.368,0.187
			c-0.114,0.069-0.204,0.138-0.269,0.207v3.453c0.065,0.052,0.151,0.101,0.257,0.149c0.106,0.047,0.22,0.09,0.343,0.129
			s0.249,0.069,0.38,0.091C206.606,80.404,206.732,80.414,206.854,80.414z"/>
		<path fill="#00548B" d="M213.346,74.858c0.408,0,0.757,0.054,1.048,0.161c0.29,0.108,0.531,0.247,0.722,0.419
			c0.192,0.172,0.341,0.368,0.447,0.587s0.186,0.443,0.239,0.67c0.052,0.228,0.085,0.447,0.098,0.658
			c0.012,0.211,0.018,0.393,0.018,0.548v0.503h-3.98c0,0.275,0.027,0.531,0.08,0.767c0.053,0.237,0.142,0.441,0.269,0.613
			s0.294,0.309,0.502,0.412s0.463,0.155,0.765,0.155c0.344,0,0.667-0.037,0.974-0.11c0.306-0.073,0.622-0.178,0.949-0.316
			l0.293,0.877c-0.376,0.215-0.761,0.37-1.157,0.464c-0.396,0.095-0.802,0.142-1.218,0.142c-0.563,0-1.027-0.086-1.39-0.258
			c-0.363-0.172-0.651-0.406-0.863-0.703c-0.213-0.297-0.36-0.64-0.441-1.032c-0.081-0.391-0.122-0.806-0.122-1.244
			c0-0.309,0.037-0.655,0.11-1.038c0.074-0.383,0.21-0.743,0.41-1.083s0.48-0.623,0.839-0.851
			C212.297,74.972,212.766,74.858,213.346,74.858z M213.395,75.812c-0.261,0-0.48,0.05-0.656,0.148
			c-0.175,0.099-0.318,0.232-0.428,0.4c-0.11,0.167-0.192,0.361-0.245,0.58s-0.088,0.45-0.105,0.69h2.719
			c0-0.266-0.02-0.511-0.061-0.735c-0.041-0.223-0.11-0.415-0.208-0.574c-0.098-0.159-0.231-0.284-0.398-0.374
			C213.846,75.857,213.64,75.812,213.395,75.812z"/>
		<path fill="#00548B" d="M220.927,81.317v-2.849h-2.609v2.849h-1.335v-6.304h1.347v2.45h2.596v-2.45h1.336v6.304H220.927z"/>
		<path fill="#00548B" d="M228.387,80.337h0.796l0.074,0.799c-0.171,0.095-0.369,0.165-0.594,0.212
			c-0.225,0.047-0.439,0.071-0.643,0.071c-0.253,0-0.455-0.047-0.606-0.142c-0.152-0.094-0.236-0.305-0.251-0.632l-0.025-0.025
			c-0.22,0.198-0.434,0.353-0.642,0.464c-0.208,0.112-0.405,0.193-0.588,0.245s-0.347,0.081-0.49,0.09
			c-0.142,0.008-0.259,0.013-0.349,0.013c-0.359,0-0.655-0.06-0.888-0.181c-0.232-0.12-0.416-0.273-0.551-0.458
			s-0.228-0.382-0.282-0.593s-0.08-0.406-0.08-0.587c0-0.301,0.061-0.567,0.184-0.799c0.122-0.232,0.292-0.427,0.509-0.586
			c0.216-0.159,0.467-0.282,0.753-0.367c0.286-0.086,0.596-0.138,0.931-0.155l1.457-0.103v-0.348c0-0.464-0.084-0.793-0.25-0.986
			c-0.167-0.193-0.488-0.29-0.962-0.29c-0.294,0-0.606,0.031-0.937,0.09c-0.33,0.06-0.642,0.142-0.937,0.245
			c-0.041-0.146-0.081-0.297-0.123-0.451c-0.041-0.155-0.081-0.305-0.122-0.451c0.343-0.164,0.735-0.29,1.176-0.381
			c0.441-0.09,0.861-0.135,1.261-0.135c0.335,0,0.637,0.037,0.906,0.11c0.269,0.073,0.498,0.194,0.686,0.361
			c0.188,0.168,0.333,0.389,0.434,0.664c0.103,0.275,0.153,0.61,0.153,1.006L228.387,80.337L228.387,80.337z M225.717,78.493
			c-0.36,0.026-0.623,0.122-0.79,0.29c-0.167,0.167-0.251,0.393-0.251,0.677c0,0.327,0.076,0.574,0.227,0.741
			s0.398,0.251,0.741,0.251c0.228,0,0.469-0.062,0.722-0.187c0.254-0.124,0.498-0.299,0.735-0.522v-1.354L225.717,78.493z"/>
		<path fill="#00548B" d="M237.046,81.317v-2.669c-0.286,0.155-0.606,0.266-0.962,0.335c-0.355,0.069-0.679,0.103-0.973,0.103
			c-0.392,0-0.71-0.056-0.955-0.167c-0.245-0.112-0.435-0.262-0.57-0.451c-0.135-0.189-0.226-0.406-0.275-0.651
			s-0.074-0.505-0.074-0.78v-2.024h1.335v1.741c0,0.43,0.062,0.746,0.185,0.948c0.124,0.202,0.378,0.303,0.764,0.303
			c0.238,0,0.496-0.028,0.775-0.084c0.279-0.056,0.53-0.144,0.751-0.264V75h1.335v6.317H237.046z"/>
		<path fill="#00548B" d="M244.517,80.337h0.796l0.074,0.799c-0.171,0.095-0.369,0.165-0.594,0.212
			c-0.225,0.047-0.439,0.071-0.643,0.071c-0.253,0-0.455-0.047-0.606-0.142c-0.152-0.094-0.236-0.305-0.251-0.632l-0.025-0.025
			c-0.22,0.198-0.434,0.353-0.642,0.464c-0.208,0.112-0.405,0.193-0.588,0.245s-0.347,0.081-0.49,0.09
			c-0.142,0.008-0.259,0.013-0.349,0.013c-0.359,0-0.655-0.06-0.888-0.181c-0.232-0.12-0.416-0.273-0.551-0.458
			s-0.228-0.382-0.282-0.593s-0.08-0.406-0.08-0.587c0-0.301,0.061-0.567,0.184-0.799c0.122-0.232,0.292-0.427,0.509-0.586
			c0.216-0.159,0.467-0.282,0.753-0.367c0.286-0.086,0.596-0.138,0.931-0.155l1.457-0.103v-0.348c0-0.464-0.084-0.793-0.25-0.986
			c-0.167-0.193-0.488-0.29-0.962-0.29c-0.294,0-0.606,0.031-0.937,0.09c-0.33,0.06-0.642,0.142-0.937,0.245
			c-0.041-0.146-0.081-0.297-0.123-0.451c-0.041-0.155-0.081-0.305-0.122-0.451c0.343-0.164,0.735-0.29,1.176-0.381
			c0.441-0.09,0.861-0.135,1.261-0.135c0.335,0,0.637,0.037,0.906,0.11c0.269,0.073,0.498,0.194,0.686,0.361
			c0.188,0.168,0.333,0.389,0.434,0.664c0.102,0.275,0.153,0.61,0.153,1.006L244.517,80.337L244.517,80.337z M241.847,78.493
			c-0.36,0.026-0.623,0.122-0.79,0.29c-0.167,0.167-0.251,0.393-0.251,0.677c0,0.327,0.076,0.574,0.227,0.741
			s0.398,0.251,0.741,0.251c0.228,0,0.469-0.062,0.722-0.187c0.254-0.124,0.498-0.299,0.735-0.522v-1.354L241.847,78.493z"/>
		<path fill="#00548B" d="M247.48,78.146c0,0.327,0.027,0.623,0.08,0.889c0.053,0.267,0.141,0.495,0.263,0.684
			c0.123,0.189,0.286,0.337,0.491,0.445c0.203,0.108,0.461,0.161,0.772,0.161c0.302,0,0.585-0.032,0.851-0.097
			c0.265-0.064,0.541-0.156,0.826-0.277l0.294,0.941c-0.278,0.155-0.606,0.279-0.986,0.374c-0.38,0.095-0.774,0.142-1.182,0.142
			c-0.531,0-0.973-0.082-1.329-0.245c-0.355-0.163-0.639-0.387-0.851-0.671c-0.212-0.284-0.363-0.619-0.453-1.005
			c-0.09-0.387-0.135-0.804-0.135-1.251c0-0.352,0.038-0.726,0.116-1.122c0.077-0.395,0.221-0.758,0.429-1.089
			c0.208-0.331,0.496-0.606,0.864-0.825c0.367-0.219,0.845-0.329,1.433-0.329c0.261,0,0.543,0.02,0.845,0.058
			c0.302,0.039,0.617,0.122,0.943,0.251l-0.245,1.006c-0.277-0.095-0.528-0.153-0.753-0.174c-0.225-0.022-0.431-0.032-0.619-0.032
			c-0.538,0-0.949,0.194-1.231,0.58C247.621,76.947,247.48,77.475,247.48,78.146z"/>
		<path fill="#00548B" d="M257.401,78.171c0,0.421-0.049,0.827-0.147,1.219c-0.098,0.391-0.259,0.739-0.484,1.044
			s-0.52,0.548-0.888,0.728c-0.367,0.18-0.825,0.271-1.372,0.271c-0.523,0-0.959-0.086-1.311-0.258
			c-0.351-0.172-0.635-0.406-0.851-0.703c-0.217-0.297-0.372-0.642-0.466-1.038c-0.094-0.395-0.141-0.812-0.141-1.251
			c0-0.43,0.052-0.844,0.159-1.244c0.106-0.399,0.274-0.752,0.502-1.057s0.524-0.55,0.888-0.735
			c0.363-0.185,0.802-0.277,1.316-0.277c0.523,0,0.964,0.093,1.323,0.277c0.359,0.185,0.647,0.43,0.863,0.735
			c0.217,0.305,0.372,0.658,0.466,1.057C257.354,77.34,257.401,77.75,257.401,78.171z M256.005,78.184
			c0-0.266-0.016-0.535-0.049-0.806s-0.1-0.516-0.202-0.735c-0.102-0.219-0.245-0.398-0.429-0.535s-0.423-0.206-0.717-0.206
			c-0.293,0-0.537,0.067-0.728,0.2c-0.192,0.133-0.343,0.309-0.453,0.529c-0.11,0.219-0.188,0.464-0.232,0.735
			c-0.045,0.271-0.068,0.544-0.068,0.818c0,0.301,0.019,0.585,0.056,0.851c0.037,0.267,0.108,0.501,0.214,0.703
			s0.257,0.363,0.453,0.484c0.196,0.12,0.449,0.18,0.759,0.18c0.294,0,0.531-0.064,0.71-0.193c0.18-0.129,0.321-0.297,0.423-0.503
			c0.103-0.206,0.171-0.442,0.208-0.709C255.987,78.73,256.005,78.459,256.005,78.184z"/>
		<path fill="#00548B" d="M264.113,81.317v-4.216h-0.061l-0.49,1.109c-0.188,0.413-0.378,0.815-0.57,1.205
			c-0.192,0.391-0.382,0.802-0.57,1.231h-0.845c-0.074-0.155-0.161-0.337-0.263-0.548c-0.103-0.21-0.208-0.428-0.318-0.651
			s-0.221-0.447-0.331-0.671c-0.11-0.223-0.21-0.421-0.3-0.593c-0.131-0.266-0.247-0.507-0.349-0.722
			c-0.103-0.215-0.17-0.356-0.203-0.425h-0.048v4.28h-1.286v-6.304h1.458l1.335,2.682c0.164,0.327,0.306,0.625,0.429,0.896
			c0.122,0.271,0.212,0.466,0.269,0.587h0.049c0.041-0.095,0.128-0.292,0.263-0.593s0.292-0.64,0.472-1.018
			c0.074-0.172,0.171-0.387,0.294-0.645c0.122-0.258,0.245-0.516,0.367-0.773c0.123-0.258,0.235-0.492,0.337-0.703
			c0.102-0.21,0.173-0.354,0.214-0.432h1.408v6.304H264.113z"/>
	</g>
</g>
<g>
	<path fill="#A72B38" d="M219.956,46.539c-0.02-0.003,3.124-0.556,3.103-0.559c-1.374-0.175-5.247-0.441-5.742-1.218
		c-0.261-0.41-0.74-0.613-0.608-1.027l0.138-0.433l0.454-0.017c7.423-0.278,11.51-4.827,14.923-9.833
		c0.279-0.41,0.692-0.903,0.971-1.305c-0.597-3.989-3.259-8.754-7.105-13.007c1.334,15.294-18.819,14.29-15.93,26.013
		c2.04,1.203,5.333,1.406,8.747,1.406C219.259,46.56,219.609,46.553,219.956,46.539z"/>
	<path fill="#B73D50" d="M219.799,46.201c-0.017-0.011-0.034-0.023-0.051-0.034c-1.305-0.196-2.36-0.749-2.837-1.498
		c-0.261-0.41-0.333-0.863-0.201-1.276l0.138-0.433l0.1-0.004c-0.184-0.512-0.255-1.039-0.182-1.568
		c0.702-5.128,12.438-8.987,9.392-22.515c-0.022-0.025-0.044-0.05-0.067-0.075c1.334,15.294-18.819,14.633-15.93,26.356
		c2.04,1.203,5.333,1.063,8.747,1.063C219.206,46.217,219.503,46.211,219.799,46.201z"/>
</g>
<g>
	<path fill="#00B1DA" d="M245.662,25.618c-13.711-2.833-12.897,17.372-28.888,17.972c-0.243,0.764,0.824,1.724,2.651,1.957
		c3.27,0.416,9.053-0.576,12.349-3.607c-4.21,4.626-19.412,6.319-23.877,1.649c-2.115-2.212-3.744-3.148-4.808-2.028
		c1.515,3.111,7.859,12.859,22.916,10.312C241.176,49.309,248.667,36.166,245.662,25.618z"/>
	<path fill="#FFFFFF" d="M221.211,52.796c-0.001,0-0.001,0-0.002,0c-12.57-0.001-17.678-9.176-18.574-11.015l-0.153-0.315
		l0.241-0.254c1.181-1.241,2.922-0.711,5.54,2.028c1.589,1.662,4.916,2.615,9.128,2.615c0.326,0,0.651-0.006,0.977-0.017
		c-0.865-0.261-1.542-0.7-1.89-1.246c-0.238-0.374-0.304-0.784-0.185-1.156l0.108-0.337l0.354-0.014
		c7.72-0.29,11.354-5.232,14.869-10.012c3.112-4.234,6.054-8.233,11.522-8.233c0.829,0,1.709,0.095,2.617,0.283l0.3,0.062
		l0.084,0.294c1.458,5.122,0.517,10.877-2.585,15.791c-3.711,5.881-9.917,9.823-17.475,11.099
		C224.415,52.652,222.773,52.796,221.211,52.796z M203.725,41.695c1.234,2.336,6.187,10.09,17.484,10.091c0.001,0,0.001,0,0.001,0
		c1.507,0,3.092-0.14,4.711-0.413c7.271-1.229,13.232-5.008,16.789-10.642c2.888-4.576,3.81-9.907,2.548-14.678
		c-0.732-0.134-1.441-0.203-2.11-0.203c-4.958,0-7.623,3.625-10.709,7.821c-3.407,4.634-7.26,9.873-15.098,10.395
		c0.242,0.359,0.943,0.825,2.147,0.979c3.217,0.411,8.83-0.615,11.943-3.478l0.716,0.712c-2.739,3.01-9.497,4.586-14.757,4.586
		c-2.637,0-7.423-0.381-9.858-2.929C205.739,42.062,204.488,41.277,203.725,41.695z"/>
</g>
<path fill="#00548B" d="M222.361-0.029c-9.229,0-17.447,4.397-22.683,11.201c-2.047-4.631-6.81-8.137-13.394-8.137
	c-11.111,0-17.157,7.936-17.157,16.855c0,2.797,1.134,4.082,3.25,4.082c1.436,0,2.948-0.68,2.948-3.023
	c0-6.727,3.401-12.169,9.826-12.169c4.837,0,8.541,3.477,8.541,8.39c0,3.25-1.739,6.576-3.93,9.523L171.169,51.56
	c-1.134,1.587-1.436,2.192-1.436,3.023c0,1.134,0.831,2.721,3.628,2.721h46.265c0.33,0,0.642-0.067,0.937-0.169
	c0.596,0.037,1.195,0.062,1.8,0.062c15.777,0,28.613-12.836,28.613-28.612S238.138-0.029,222.361-0.029z M179.028,51.558
	l14.897-19.821c0.893,8.101,5.177,15.194,11.403,19.821H179.028z M222.361,51.638c-12.713,0-23.055-10.342-23.055-23.055
	s10.342-23.056,23.055-23.056s23.055,10.343,23.055,23.056S235.074,51.638,222.361,51.638z"/>
<g>
	<g>
		<path fill="#00B1DA" d="M239.967,50.041c0-0.451,0.268-0.748,0.748-0.748h1.697c1.41,0,2.455,0.921,2.455,2.292
			c0,1.4-1.083,2.273-2.397,2.273h-1.065v1.572c0,0.48-0.307,0.748-0.719,0.748c-0.412,0-0.719-0.269-0.719-0.748L239.967,50.041
			L239.967,50.041z M241.405,52.592h0.978c0.604,0,0.988-0.441,0.988-1.016c0-0.576-0.383-1.017-0.988-1.017h-0.978V52.592z"/>
		<path fill="#00B1DA" d="M245.222,52.707c0-1.995,1.343-3.529,3.299-3.529c1.927,0,3.298,1.582,3.298,3.529
			c0,1.985-1.332,3.529-3.298,3.529C246.574,56.235,245.222,54.692,245.222,52.707z M250.324,52.707c0-1.16-0.604-2.205-1.803-2.205
			s-1.803,1.045-1.803,2.205c0,1.17,0.585,2.206,1.803,2.206S250.324,53.877,250.324,52.707z"/>
		<path fill="#00B1DA" d="M252.607,49.945c0-0.393,0.288-0.709,0.719-0.709c0.412,0,0.719,0.268,0.719,0.709v2.071l2.359-2.513
			c0.106-0.115,0.288-0.268,0.556-0.268c0.365,0,0.71,0.278,0.71,0.69c0,0.25-0.153,0.451-0.47,0.767l-1.812,1.784l2.215,2.311
			c0.221,0.23,0.403,0.441,0.403,0.729c0,0.451-0.355,0.662-0.748,0.662c-0.278,0-0.46-0.163-0.729-0.451l-2.484-2.685v2.445
			c0,0.374-0.288,0.691-0.719,0.691c-0.412,0-0.719-0.269-0.719-0.691L252.607,49.945L252.607,49.945z"/>
		<path fill="#00B1DA" d="M258.659,49.983c0-0.48,0.307-0.748,0.719-0.748s0.719,0.268,0.719,0.748v5.446
			c0,0.48-0.307,0.748-0.719,0.748s-0.719-0.269-0.719-0.748V49.983z"/>
		<path fill="#00B1DA" d="M261.152,50.012c0-0.46,0.316-0.719,0.757-0.719h1.841c0.997,0,1.803,0.671,1.803,1.688
			c0,0.671-0.278,1.122-0.891,1.409v0.019c0.815,0.115,1.457,0.796,1.457,1.63c0,1.352-0.901,2.081-2.224,2.081h-1.975
			c-0.441,0-0.767-0.278-0.767-0.729v-5.379H261.152z M262.59,51.997h0.748c0.47,0,0.777-0.278,0.777-0.758
			c0-0.45-0.355-0.681-0.777-0.681h-0.748V51.997z M262.59,54.855h1.132c0.518,0,0.901-0.297,0.901-0.834
			c0-0.45-0.345-0.757-1.016-0.757h-1.017V54.855z"/>
	</g>
</g>
<g>
	<g>
		<path fill="#00548B" d="M128.874,54.475c0,0.978-0.862,1.774-1.916,1.774h-2.735c-1.05,0-2.006-0.019-2.115-0.047
			c-0.109-0.022-0.301-0.078-0.441-0.133c-0.135-0.048-0.263-0.087-0.292-0.087c-0.025,0-0.118-0.022-0.198-0.045
			c-0.082-0.028-0.251-0.087-0.398-0.138c-0.132-0.049-0.328-0.129-0.435-0.182c-0.112-0.051-0.284-0.131-0.393-0.177
			c-0.108-0.055-0.286-0.155-0.39-0.231c-0.106-0.077-0.28-0.174-0.394-0.227c-0.107-0.045-0.286-0.149-0.39-0.23
			c-0.115-0.077-0.286-0.192-0.396-0.274c-0.106-0.076-0.286-0.192-0.398-0.268c-0.109-0.078-0.257-0.192-0.339-0.274
			c-0.079-0.071-0.237-0.194-0.349-0.273c-0.103-0.069-0.251-0.196-0.335-0.267c-0.085-0.074-0.217-0.219-0.298-0.322
			c-0.082-0.097-0.211-0.239-0.289-0.316c-0.088-0.074-0.217-0.215-0.298-0.32c-0.082-0.102-0.19-0.255-0.245-0.358
			c-0.052-0.103-0.165-0.263-0.243-0.367c-0.079-0.097-0.194-0.261-0.253-0.36c-0.054-0.1-0.157-0.265-0.239-0.362
			c-0.082-0.096-0.188-0.259-0.249-0.361c-0.049-0.103-0.132-0.284-0.196-0.411c-0.048-0.125-0.114-0.308-0.143-0.411
			c-0.027-0.102-0.094-0.284-0.147-0.405c-0.052-0.125-0.12-0.308-0.149-0.409c-0.027-0.097-0.07-0.283-0.101-0.408
			c-0.025-0.125-0.066-0.331-0.096-0.456c-0.029-0.124-0.072-0.325-0.099-0.447c-0.024-0.126-0.047-0.31-0.047-0.41
			c0-0.097-0.02-0.284-0.052-0.408c-0.029-0.132-0.049-0.329-0.049-0.458v-0.497c0-0.151,0.02-0.358,0.049-0.452
			c0.031-0.102,0.052-0.284,0.052-0.41c0-0.127,0.023-0.329,0.047-0.451c0.025-0.131,0.069-0.328,0.099-0.455
			c0.029-0.12,0.07-0.328,0.096-0.451c0.029-0.131,0.072-0.313,0.101-0.414c0.029-0.103,0.096-0.284,0.149-0.404
			c0.052-0.124,0.12-0.313,0.147-0.409c0.029-0.104,0.094-0.267,0.143-0.366c0.064-0.102,0.147-0.281,0.196-0.408
			c0.06-0.124,0.167-0.305,0.249-0.406c0.082-0.1,0.184-0.266,0.239-0.363c0.058-0.096,0.173-0.265,0.253-0.362
			c0.078-0.099,0.19-0.271,0.243-0.358c0.054-0.104,0.164-0.248,0.245-0.322c0.081-0.073,0.211-0.217,0.298-0.325
			c0.078-0.096,0.207-0.259,0.289-0.358c0.082-0.096,0.213-0.238,0.298-0.311c0.084-0.079,0.233-0.198,0.335-0.273
			c0.113-0.078,0.269-0.201,0.349-0.274c0.082-0.074,0.231-0.198,0.339-0.275c0.112-0.071,0.292-0.197,0.398-0.265
			c0.109-0.084,0.28-0.203,0.396-0.275c0.103-0.077,0.283-0.178,0.39-0.228c0.114-0.047,0.289-0.135,0.394-0.179
			c0.103-0.052,0.281-0.154,0.39-0.23c0.109-0.076,0.281-0.155,0.393-0.182c0.108-0.027,0.304-0.085,0.435-0.135
			c0.147-0.054,0.316-0.133,0.398-0.182c0.082-0.049,0.173-0.094,0.198-0.094c0.029,0,0.159-0.04,0.292-0.095
			c0.141-0.046,0.333-0.106,0.441-0.131c0.109-0.023,1.064-0.045,2.115-0.045h2.735c1.052,0,1.916,0.796,1.916,1.775V54.475z
			 M41.71,42.67c0,1.073-0.88,1.952-1.94,1.952H34c-1.07,0-1.948,0.871-1.948,1.943v5.771c0,1.072-0.878,1.942-1.946,1.942h-9.651
			c-1.067,0-1.94-0.869-1.94-1.942v-5.771c0-1.072-0.883-1.943-1.95-1.943H10.7c-1.073,0-1.944-0.878-1.944-1.952v-9.743
			c0-1.07,0.871-1.943,1.944-1.943h5.864c1.067,0,1.95-0.877,1.95-1.949v-5.771c0-1.066,0.872-1.943,1.94-1.943h9.651
			c1.067,0,1.946,0.877,1.946,1.943v5.771c0,1.072,0.877,1.949,1.948,1.949h5.77c1.058,0,1.94,0.872,1.94,1.943V42.67z
			 M140.869,22.105h-7.098h-4.245h-4.226h-2.175h-0.167h-0.211h-0.278h-0.271h-0.219h-0.269h-0.272h-0.211h-0.708
			c-0.331,0-0.866,0.029-1.193,0.055c-0.337,0.027-0.872,0.076-1.199,0.107c-0.326,0.034-0.866,0.104-1.194,0.167
			c-0.331,0.058-0.842,0.179-1.143,0.268c-0.298,0.09-0.811,0.239-1.139,0.326c-0.328,0.085-0.845,0.232-1.139,0.325
			c-0.308,0.089-0.793,0.26-1.093,0.381c-0.295,0.12-0.76,0.313-1.029,0.435c-0.26,0.119-0.733,0.339-1.035,0.49
			c-0.289,0.149-0.762,0.392-1.029,0.541c-0.26,0.15-0.705,0.42-0.976,0.6c-0.273,0.179-0.682,0.473-0.925,0.649
			c-0.24,0.176-0.652,0.494-0.922,0.709c-0.266,0.202-0.681,0.527-0.924,0.703c-0.238,0.178-0.602,0.523-0.815,0.766
			c-0.208,0.236-0.551,0.6-0.761,0.811c-0.207,0.203-0.545,0.575-0.76,0.812c-0.205,0.24-0.548,0.631-0.758,0.873
			c-0.211,0.238-0.523,0.647-0.706,0.917c-0.184,0.271-0.45,0.713-0.602,0.978c-0.149,0.269-0.412,0.712-0.592,0.981
			c-0.18,0.272-0.423,0.708-0.547,0.982c-0.126,0.266-0.342,0.731-0.485,1.029c-0.149,0.298-0.372,0.784-0.491,1.085
			c-0.123,0.295-0.283,0.785-0.374,1.085c-0.09,0.295-0.234,0.785-0.331,1.085c-0.088,0.298-0.225,0.776-0.304,1.046
			c-0.072,0.279-0.396-0.416-0.718-1.537l-4.102-14.302c-0.319-1.121-1.193-2.043-1.936-2.043h-3.483h-3.135h-3.541
			c-0.772,0-1.673,0.922-1.997,2.043l-7.517,26.261c-0.316,1.118-0.584,1.084-0.584-0.081V24.662c0-1.164-0.951-2.118-2.124-2.118
			H57.521c-1.168,0-2.124,0.465-2.124,1.05c0,0.581-0.047,0.944-0.109,0.812c-0.06-0.127-0.255-0.554-0.433-0.945
			c-0.176-0.387-0.491-0.999-0.706-1.358c-0.209-0.357-0.553-0.945-0.764-1.303c-0.213-0.357-0.553-0.92-0.762-1.247
			c-0.208-0.331-0.571-0.866-0.811-1.193c-0.239-0.329-0.651-0.869-0.917-1.199c-0.275-0.332-0.715-0.844-0.981-1.141
			c-0.278-0.298-0.735-0.761-1.035-1.029c-0.295-0.269-0.764-0.736-1.029-1.033c-0.274-0.301-0.76-0.741-1.093-0.978
			c-0.325-0.238-0.836-0.633-1.135-0.872c-0.302-0.237-0.807-0.627-1.141-0.869c-0.325-0.234-0.892-0.604-1.246-0.808
			c-0.36-0.213-0.95-0.53-1.308-0.712c-0.364-0.179-0.944-0.47-1.305-0.648c-0.36-0.18-0.944-0.447-1.302-0.601
			c-0.36-0.149-0.971-0.391-1.362-0.543c-0.385-0.15-1.021-0.363-1.407-0.487c-0.384-0.121-1.027-0.285-1.412-0.373
			c-0.387-0.089-1.027-0.239-1.412-0.331c-0.387-0.09-1.044-0.215-1.468-0.272c-0.415-0.059-1.103-0.135-1.524-0.164
			c-0.41-0.031-4.352-0.097-4.44-0.097h-2.285h-6.624h-4.246H2.185C1.013,6.204,0,7.311,0,8.477v58.751
			c0,1.165,0.954,2.13,2.13,2.13h10.955h4.243h6.835c1.168,0,6.165-0.031,6.575-0.057c0.421-0.029,1.109-0.1,1.524-0.162
			c0.424-0.063,1.081-0.161,1.468-0.219c0.386-0.057,1.026-0.207,1.412-0.323c0.386-0.12,1.029-0.317,1.412-0.438
			c0.387-0.121,1.023-0.313,1.407-0.433c0.392-0.117,1.003-0.364,1.362-0.543c0.357-0.182,0.942-0.451,1.302-0.594
			c0.36-0.149,0.939-0.445,1.305-0.652c0.357-0.208,0.948-0.557,1.308-0.759c0.354-0.212,0.922-0.557,1.246-0.762
			c0.333-0.209,0.839-0.58,1.141-0.819c0.298-0.233,0.809-0.649,1.135-0.921c0.334-0.267,0.819-0.703,1.093-0.976
			c0.266-0.268,0.735-0.733,1.029-1.033c0.302-0.298,0.758-0.785,1.035-1.082c0.266-0.305,0.706-0.817,0.981-1.143
			c0.266-0.329,0.678-0.845,0.917-1.141c0.24-0.301,0.602-0.837,0.811-1.192c0.209-0.361,0.549-0.95,0.762-1.306
			c0.211-0.361,0.554-0.944,0.764-1.303c0.213-0.361,0.53-0.948,0.706-1.306c0.178-0.36,0.372-0.761,0.433-0.892
			c0.06-0.132,0.109,0.721,0.109,1.886v14.15c0,1.17,0.956,2.125,2.124,2.125h11.394c1.172,0,10.8,0.008,10.8,0.008
			c1.168-0.01,2.243-1.06,2.447-2.207l3.706-20.691c0.211-1.152,0.542-1.152,0.743,0l3.615,20.686
			c0.201,1.152,1.317,2.099,2.486,2.109l11.36,0.103c1.164,0.007,1.793-0.927,1.468-2.053l-0.966-3.371
			c-0.325-1.118-0.5-1.952-0.39-1.839c0.109,0.112,0.368,0.396,0.577,0.628c0.213,0.242,0.578,0.602,0.815,0.813
			c0.243,0.213,0.657,0.524,0.924,0.712c0.269,0.179,0.682,0.469,0.922,0.649c0.243,0.182,0.651,0.468,0.925,0.651
			c0.272,0.18,0.717,0.447,0.976,0.599c0.267,0.148,0.741,0.396,1.029,0.542c0.303,0.153,0.776,0.368,1.035,0.49
			c0.269,0.119,0.735,0.316,1.029,0.432c0.301,0.121,0.787,0.313,1.093,0.433c0.292,0.121,0.809,0.292,1.139,0.381
			c0.327,0.089,0.839,0.212,1.139,0.273c0.302,0.06,0.812,0.159,1.143,0.22c0.328,0.058,0.868,0.136,1.194,0.164
			c0.327,0.031,0.862,0.076,1.199,0.106c0.327,0.025,0.91,0.057,1.302,0.057h0.809h0.215h0.217h0.221h0.219h0.215h0.219h0.267h2.286
			h4.226h4.245h7.098c1.168,0,2.12-0.964,2.12-2.13v-43C142.989,23.067,142.036,22.105,140.869,22.105"/>
		<path fill="#A72B38" d="M0,73.195c0,0.712,0.58,1.287,1.287,1.287h140.628c0.709,0,1.288-0.576,1.288-1.287
			c0-0.717-0.58-1.295-1.288-1.295H1.287C0.579,71.899,0,72.478,0,73.195C0,73.195,0,72.478,0,73.195"/>
		<path fill="#00548B" d="M146.313,15.793v1.04h0.515c0.286,0,0.48-0.048,0.569-0.141c0.09-0.103,0.141-0.226,0.141-0.384
			c0-0.17-0.041-0.294-0.13-0.386c-0.09-0.085-0.249-0.132-0.493-0.132h-0.601v0.002H146.313z M145.711,19.025v-3.712h1.407
			c0.141,0,0.28,0.028,0.441,0.074c0.158,0.046,0.304,0.147,0.433,0.296c0.126,0.148,0.186,0.357,0.186,0.625
			c0,0.208-0.049,0.384-0.149,0.53c-0.096,0.149-0.217,0.265-0.368,0.342c-0.15,0.079-0.298,0.119-0.445,0.119h-0.084l1.176,1.727
			h-0.699l-1.136-1.711h-0.161v1.711h-0.602L145.711,19.025L145.711,19.025z M144.197,17.165c0,0.481,0.118,0.925,0.354,1.336
			c0.243,0.42,0.571,0.746,0.984,0.988c0.416,0.248,0.866,0.368,1.352,0.368c0.476,0,0.93-0.118,1.331-0.356
			c0.415-0.242,0.746-0.564,0.986-0.978c0.245-0.414,0.366-0.867,0.366-1.359c0-0.485-0.121-0.939-0.366-1.349
			c-0.24-0.415-0.571-0.739-0.986-0.978c-0.402-0.239-0.854-0.356-1.331-0.356c-0.485,0-0.936,0.121-1.352,0.367
			c-0.412,0.24-0.741,0.568-0.984,0.982C144.313,16.247,144.197,16.692,144.197,17.165 M143.717,17.165
			c0-0.569,0.143-1.102,0.427-1.588c0.292-0.486,0.672-0.872,1.168-1.154c0.485-0.279,1.009-0.421,1.573-0.421
			c0.418,0,0.818,0.083,1.207,0.239c0.383,0.165,0.724,0.393,1.019,0.682c0.291,0.294,0.53,0.631,0.687,1.017
			c0.17,0.385,0.249,0.79,0.249,1.224c0,0.441-0.079,0.848-0.249,1.235c-0.158,0.382-0.396,0.721-0.687,1.014
			c-0.295,0.291-0.635,0.518-1.019,0.676c-0.39,0.164-0.789,0.245-1.207,0.245c-0.565,0-1.087-0.142-1.573-0.422
			c-0.493-0.281-0.874-0.665-1.168-1.154C143.86,18.272,143.717,17.743,143.717,17.165"/>
	</g>
	<polygon fill="#00548B" points="5.442,76.881 4.542,80.194 3.628,76.881 1.067,76.881 0.255,82.698 2.518,82.698 2.791,79.673 
		3.663,82.698 5.414,82.698 6.293,79.673 6.56,82.698 8.82,82.698 8.004,76.881 	"/>
	<polygon fill="#00548B" points="10.873,76.881 10.873,82.698 14.951,82.698 14.951,81.014 13.202,81.014 13.202,80.454 
		14.772,80.454 14.772,79.057 13.202,79.057 13.202,78.566 14.951,78.566 14.951,76.881 	"/>
	<g>
		<path fill="#00548B" d="M19.972,78.566v0.821c0,0.45-0.049,0.8-0.141,1.046c-0.094,0.246-0.226,0.443-0.396,0.58h1.23v-2.447
			H19.972z M17.872,76.88h5.124v4.133h0.699v2.846h-1.979v-1.162h-3.027v1.162h-1.979v-2.846c0.348-0.018,0.607-0.135,0.78-0.348
			c0.17-0.211,0.278-0.443,0.319-0.696c0.043-0.257,0.064-0.537,0.064-0.838v-2.25h-0.001V76.88z"/>
	</g>
	<polygon fill="#00548B" points="29.527,76.881 27.897,79.78 27.897,76.881 25.686,76.881 25.686,82.698 27.784,82.698 
		29.412,79.905 29.412,82.698 31.627,82.698 31.627,76.881 	"/>
	<g>
		<path fill="#00548B" d="M37.166,82.699v-2.038c-0.266,0.043-0.464,0.072-0.594,0.087c-0.141,0.011-0.304,0.014-0.491,0.014
			c-0.517,0-0.924-0.057-1.224-0.173c-0.305-0.113-0.521-0.263-0.654-0.45c-0.132-0.188-0.211-0.382-0.243-0.584
			c-0.033-0.202-0.049-0.452-0.049-0.755v-1.919h2.334v1.321c0,0.243,0.02,0.444,0.07,0.604c0.046,0.164,0.164,0.251,0.348,0.268
			h0.161c0.046-0.004,0.103-0.01,0.161-0.017c0.066-0.01,0.126-0.018,0.184-0.025v-2.15H39.5v5.818L37.166,82.699L37.166,82.699z"/>
	</g>
	<polygon fill="#00548B" points="45.451,76.881 45.451,78.883 44.287,78.883 44.287,76.881 41.956,76.881 41.956,82.698 
		44.287,82.698 44.287,80.569 45.451,80.569 45.451,82.698 47.782,82.698 47.782,76.881 	"/>
	<path fill="#00548B" d="M53.004,78.916l0.402,1.479h-0.807L53.004,78.916z M51.725,76.881l-2.068,5.818h2.385l0.234-0.851h1.456
		l0.231,0.851h2.387l-2.065-5.818H51.725z"/>
	<g>
		<path fill="#00548B" d="M63.194,76.88h5.358v5.818h-2.329v-4.134H65.29v2.18c0,0.274-0.017,0.515-0.052,0.725
			c-0.043,0.207-0.138,0.416-0.289,0.623c-0.15,0.201-0.39,0.369-0.72,0.501c-0.333,0.129-0.772,0.197-1.323,0.197
			c-0.263,0-0.557-0.033-0.874-0.093v-1.629c0.13,0.037,0.251,0.059,0.366,0.059c0.245,0,0.427-0.059,0.545-0.182
			c0.118-0.119,0.186-0.267,0.213-0.435c0.025-0.171,0.037-0.388,0.037-0.656C63.194,79.854,63.194,76.88,63.194,76.88z"/>
	</g>
	<path fill="#00548B" d="M73.776,78.916l0.404,1.479h-0.807L73.776,78.916z M72.499,76.881l-2.07,5.818h2.383l0.237-0.851h1.454
		l0.234,0.851h2.38l-2.061-5.818H72.499z"/>
	<g>
		<path fill="#00548B" d="M81.331,81.302h0.221c0.39,0,0.582-0.148,0.582-0.443c0-0.29-0.192-0.432-0.582-0.432h-0.221V81.302z
			 M79.002,82.699v-5.818h4.828v1.684h-2.5v0.524h0.797c0.569,0,1.087,0.117,1.562,0.34c0.476,0.227,0.712,0.705,0.712,1.432
			c0,0.292-0.061,0.577-0.171,0.85c-0.118,0.273-0.345,0.507-0.681,0.698c-0.343,0.192-0.815,0.289-1.422,0.289h-3.126V82.699z"/>
		<path fill="#00548B" d="M89.691,81.011c0.333,0,0.602-0.114,0.818-0.335c0.213-0.22,0.32-0.516,0.32-0.888
			c0-0.368-0.107-0.664-0.32-0.885c-0.213-0.221-0.481-0.333-0.818-0.333c-0.226,0-0.424,0.049-0.594,0.153
			c-0.172,0.099-0.314,0.243-0.406,0.427c-0.096,0.186-0.147,0.399-0.147,0.639c0,0.242,0.049,0.455,0.147,0.64
			c0.093,0.186,0.234,0.331,0.406,0.429C89.267,80.962,89.465,81.011,89.691,81.011 M89.691,82.872
			c-0.509,0-0.974-0.074-1.393-0.227c-0.417-0.149-0.777-0.367-1.073-0.647c-0.297-0.28-0.523-0.611-0.678-0.987
			c-0.155-0.374-0.231-0.783-0.231-1.223c0-0.435,0.076-0.847,0.231-1.222c0.155-0.377,0.381-0.706,0.678-0.985
			c0.292-0.281,0.652-0.493,1.07-0.647c0.416-0.154,0.88-0.228,1.395-0.228c0.512,0,0.978,0.074,1.391,0.228
			c0.416,0.154,0.77,0.366,1.067,0.646c0.292,0.277,0.515,0.605,0.672,0.984c0.158,0.379,0.234,0.789,0.234,1.224
			c0,0.44-0.077,0.849-0.234,1.225c-0.159,0.381-0.381,0.708-0.676,0.987c-0.295,0.278-0.652,0.496-1.07,0.645
			C90.662,82.798,90.198,82.872,89.691,82.872"/>
		<path fill="#00548B" d="M97.588,78.391v0.99h0.257c0.368,0,0.553-0.166,0.553-0.497c0-0.327-0.184-0.491-0.553-0.491h-0.257
			V78.391z M95.26,82.699v-5.818h3.033c0.539,0,0.982,0.093,1.331,0.281c0.345,0.185,0.599,0.434,0.754,0.735
			c0.159,0.305,0.234,0.631,0.234,0.986c0,0.358-0.076,0.687-0.234,0.991c-0.155,0.304-0.409,0.549-0.758,0.738
			c-0.345,0.19-0.789,0.284-1.328,0.284h-0.706v1.804H95.26L95.26,82.699z"/>
	</g>
	<path fill="#00548B" d="M105.552,78.916l0.404,1.479h-0.809L105.552,78.916z M104.273,76.881l-2.071,5.818h2.385l0.237-0.851h1.454
		l0.23,0.851h2.385l-2.055-5.818H104.273z"/>
	<polygon fill="#00548B" points="110.306,76.881 110.306,78.566 111.53,78.566 111.53,82.698 113.859,82.698 113.859,78.566 
		115.079,78.566 115.079,76.881 	"/>
	<g>
		<path fill="#00548B" d="M120.192,81.011c0.328,0,0.602-0.114,0.818-0.335c0.213-0.22,0.32-0.516,0.32-0.888
			c0-0.368-0.107-0.664-0.32-0.885c-0.213-0.221-0.485-0.333-0.818-0.333c-0.226,0-0.424,0.049-0.594,0.153
			c-0.172,0.099-0.313,0.243-0.406,0.427c-0.1,0.186-0.147,0.399-0.147,0.639c0,0.242,0.046,0.455,0.147,0.64
			c0.094,0.186,0.234,0.331,0.406,0.429C119.767,80.962,119.967,81.011,120.192,81.011 M120.192,82.872
			c-0.509,0-0.968-0.074-1.391-0.227c-0.416-0.149-0.776-0.367-1.07-0.647c-0.301-0.28-0.528-0.611-0.682-0.987
			c-0.151-0.374-0.231-0.783-0.231-1.223c0-0.435,0.079-0.847,0.231-1.222c0.155-0.377,0.381-0.706,0.679-0.985
			c0.291-0.281,0.651-0.493,1.069-0.647c0.412-0.154,0.88-0.228,1.395-0.228c0.515,0,0.978,0.074,1.389,0.228
			c0.415,0.154,0.774,0.366,1.067,0.646c0.295,0.277,0.518,0.605,0.676,0.984c0.153,0.379,0.234,0.789,0.234,1.224
			c0,0.44-0.082,0.849-0.234,1.225c-0.158,0.381-0.381,0.708-0.676,0.987c-0.292,0.278-0.652,0.496-1.067,0.645
			C121.162,82.798,120.7,82.872,120.192,82.872"/>
		<path fill="#00548B" d="M128.089,78.391v0.99h0.257c0.368,0,0.559-0.166,0.559-0.497c0-0.327-0.19-0.491-0.559-0.491h-0.257
			V78.391z M125.76,82.699v-5.818h3.033c0.539,0,0.982,0.093,1.334,0.281c0.345,0.185,0.596,0.434,0.752,0.735
			c0.155,0.305,0.234,0.631,0.234,0.986c0,0.358-0.079,0.687-0.234,0.991c-0.155,0.304-0.406,0.549-0.754,0.738
			c-0.349,0.19-0.793,0.284-1.331,0.284h-0.706v1.804H125.76L125.76,82.699z"/>
	</g>
	<rect x="133.285" y="76.881" fill="#00548B" width="2.332" height="5.818"/>
	<g>
		<path fill="#00548B" d="M140.915,79.496V78.39h-0.234c-0.45,0-0.669,0.182-0.669,0.551c0,0.37,0.219,0.555,0.669,0.555H140.915z
			 M137.669,82.699l1.319-2.104c-0.198-0.059-0.386-0.159-0.568-0.292c-0.172-0.132-0.327-0.321-0.444-0.554
			c-0.118-0.238-0.176-0.528-0.176-0.857c0-0.581,0.198-1.061,0.59-1.442c0.398-0.377,1.027-0.569,1.895-0.569h2.957V82.7h-2.327
			v-1.631l-0.696,1.631h-2.549L137.669,82.699L137.669,82.699z"/>
		<path fill="#A72B38" d="M72.264,10.213c0,5.642-4.573,10.217-10.218,10.217c-5.642,0-10.212-4.575-10.212-10.217
			S56.404,0,62.046,0C67.689,0,72.264,4.571,72.264,10.213"/>
	</g>
</g>
</svg>
